HIERARCHY
ROOT Hips
{
	OFFSET	0.00	0.00	0.00
	CHANNELS 6 Xposition Yposition Zposition Zrotation Xrotation Yrotation
	JOINT Spine
	{
		OFFSET	 0.00	0.01	 0.00
		CHANNELS 3 Zrotation Xrotation Yrotation
		JOINT Spine1
		{
			OFFSET	 0.00	 2.45913012437421	 0.00
			CHANNELS 3 Zrotation Xrotation Yrotation
            JOINT Neck
            {
                OFFSET	 0.00	 2.48462964506057	 0.00
                CHANNELS 3 Zrotation Xrotation Yrotation
                JOINT Head
                {
                    OFFSET	 0.00	 0.927524780924562	 0.00
                    CHANNELS 3 Zrotation Xrotation Yrotation
                    End Site 
                    {
                        OFFSET	 0.00	 1.14999962169752	 0.00
                    }
                }
            }
			JOINT LeftShoulder
			{
				OFFSET	 0.00	 2.48462964506057	 0.00
				CHANNELS 3 Zrotation Xrotation Yrotation
				JOINT LeftUpArm
				{
					OFFSET	 0.00	 1.24881979654096	 0.00
					CHANNELS 3 Zrotation Xrotation Yrotation
					JOINT LeftForeArm
					{
						OFFSET	 0.00	2.59758046908119	 0.00
						CHANNELS 3 Zrotation Xrotation Yrotation
						JOINT LeftHand
						{
							OFFSET	 0.00	2.45542024364365	 0.00
							CHANNELS 3 Zrotation Xrotation Yrotation
							JOINT LeftHandThumb 
							{
								OFFSET	 0.00	0.00	 0.00
								CHANNELS 3 Zrotation Xrotation Yrotation
								End Site
								{
									OFFSET	 0.00	0.00	1.00000003353624
								}
							}
							JOINT L_Wrist_End 
							{
								OFFSET	 0.00	0.99999967115358	 0.00
								CHANNELS 3 Zrotation Xrotation Yrotation
								End Site 
								{
									OFFSET	 0.00	 0.00	 0.00
								}
							}
						}
					}
				}
			}
			JOINT RightShoulder
			{
				OFFSET	 0.00	 2.48462964506057	 0.00
				CHANNELS 3 Zrotation Xrotation Yrotation
				JOINT RightUpArm
				{
					OFFSET	 0.00	 1.24881979654096	 0.00
					CHANNELS 3 Zrotation Xrotation Yrotation
					JOINT RightForeArm
					{
						OFFSET	 0.00	2.59758046908119	 0.00
						CHANNELS 3 Zrotation Xrotation Yrotation
						JOINT RightHand
						{
							OFFSET	 0.00	2.45542024364365	 0.00
							CHANNELS 3 Zrotation Xrotation Yrotation
							JOINT RightHandThumb 
							{
								OFFSET	 0.00	0.00	 0.00
								CHANNELS 3 Zrotation Xrotation Yrotation
								End Site
								{
									OFFSET	 0.00	0.00	1.00000003353624
								}
							}
							JOINT R_Wrist_End 
							{
								OFFSET	 0.00	0.99999967115358	 0.00
								CHANNELS 3 Zrotation Xrotation Yrotation
								End Site 
								{
									OFFSET	 0.00	 0.00	 0.00
								}
							}
						}
					}
				}
			}
		}
	}
	JOINT LeftUpLeg
	{
		OFFSET	 1.2719394002717	 0.00	 0.00
		CHANNELS 3 Zrotation Xrotation Yrotation
		JOINT LeftLowLeg
		{
			OFFSET	 0.00	-4.3429100912261	 0.00
			CHANNELS 3 Zrotation Xrotation Yrotation
			JOINT LeftFoot
			{
				OFFSET	 0.00	-4.48767017425826	 0.00
				CHANNELS 3 Zrotation Xrotation Yrotation
				JOINT LeftToeBase
                {
                    OFFSET	 0.00	0.00	 1.51507020887566
                    CHANNELS 3 Zrotation Xrotation Yrotation
                    End Site 
                    {
                        OFFSET	 0.00	0.00	 0.75000010571191
                    }
                }
			}
		}
	}
	JOINT RightUpLeg
	{
		OFFSET	 -1.2719393604653	 0.00	 0.00
		CHANNELS 3 Zrotation Xrotation Yrotation
		JOINT RightLowLeg
		{
			OFFSET	 0.00	-4.3429100912261	 0.00
			CHANNELS 3 Zrotation Xrotation Yrotation
			JOINT RightFoot
			{
				OFFSET	 0.00	-4.48767017425826	 0.00
				CHANNELS 3 Zrotation Xrotation Yrotation
				JOINT RightToeBase
                {
                    OFFSET	 0.00	0.00	 1.51507020887566
                    CHANNELS 3 Zrotation Xrotation Yrotation
                    End Site 
                    {
                        OFFSET	 0.00	0.00	 0.749999965609858
                    }
                }   
			}
		}
	}
}
MOTION 
Frames:	20 
Frame Time: 0.02 
  -2.0719900512695313 -0.6020700073242188 10.476600341796875 -11.7653 85.4565 46.7909 6.82128 -15.151 8.34887 -5.95737 27.5178 -6.85347 41.6351 39.9373 -3.71655 -48.616 -64.1789 -72.8982 -116.0051 -3.12409 -10.6213 -29.5822 -2.50852 30.7762 0.0 30.3335 0.0 6.50168 -7.52482 8.65073 0.0 0.0 0.0 0.0 0.0 0.0 111.8736 3.13106 3.68822 14.1484 27.092 4.982 0.0 44.9271 0.0 -6.24056 -16.6463 31.0787 0.0 0.0 0.0 0.0 0.0 0.0 12.973 -4.3817 -13.0199 0.0 22.9045 0.0 -12.678 12.00749 0.449673 0.0 -20.03218 0.0 10.3421 4.31203 10.4324 0.0 6.03704 0.0 17.5518 9.78065 -23.9895 0.0 -12.92639 0.0 
  -2.082469940185547 -0.5599919891357422 10.4827001953125 -11.6606 85.7176 46.8683 7.47533 -14.6139 8.85241 -6.942 27.1971 -7.13533 43.3759 40.278 -4.8828 -47.9528 -64.6427 -72.0761 -115.6813 -3.21987 -10.0489 -29.4497 -2.53704 30.3395 0.0 30.2484 0.0 6.30118 -7.69189 8.98453 0.0 0.0 0.0 0.0 0.0 0.0 111.0006 3.33821 4.26735 11.5729 28.3613 8.1163 0.0 41.7065 0.0 -4.33045 -15.0161 26.5628 0.0 0.0 0.0 0.0 0.0 0.0 12.638 -5.03099 -12.8323 0.0 23.1819 0.0 -12.6138 12.48242 0.453927 0.0 -20.25227 0.0 10.0588 3.94708 10.363 0.0 5.96566 0.0 17.6289 9.876471 -24.0275 0.0 -12.89983 0.0 
  -2.092969970703125 -0.5167689895629883 10.4906005859375 -11.2651 86.0589 46.5787 8.19222 -13.9672 9.51966 -8.23768 26.6964 -7.40726 45.7303 40.7563 -6.43593 -46.5984 -65.0661 -70.4361 -115.2432 -3.41176 -9.44225 -29.276 -2.55231 30.0338 0.0 30.2954 0.0 6.36271 -7.87992 9.82767 0.0 0.0 0.0 0.0 0.0 0.0 110.3091 3.30687 4.70002 9.25924 29.4408 10.9674 0.0 39.8796 0.0 -2.69608 -14.396 24.1663 0.0 0.0 0.0 0.0 0.0 0.0 12.27 -5.66856 -12.4033 0.0 23.3568 0.0 -12.5213 13.11383 0.342546 0.0 -20.57781 0.0 9.69723 3.53243 10.2519 0.0 5.90699 0.0 17.6446 10.00443 -24.003 0.0 -12.8814 0.0 
  -2.1029100036621093 -0.4729119873046875 10.50010009765625 -10.5247 86.4109 45.869 8.90691 -13.2298 10.236 -9.60513 26.0773 -7.67752 48.5863 41.2989 -8.38346 -44.7582 -65.3526 -68.1503 -114.7881 -3.62248 -9.03145 -29.1186 -2.69972 29.7965 0.0 30.3443 0.0 6.35025 -7.88961 10.507 0.0 0.0 0.0 0.0 0.0 0.0 109.8299 3.1122 4.96745 7.09962 30.1651 13.4745 0.0 39.9047 0.0 -3.18458 -14.5154 19.1135 0.0 0.0 0.0 0.0 0.0 0.0 11.9255 -6.25997 -11.6744 0.0 23.4596 0.0 -12.446 13.84188 0.0915188 0.0 -20.88882 0.0 9.31179 3.08206 10.2894 0.0 5.92123 0.0 17.6682 10.17923 -24.0365 0.0 -12.93415 0.0 
  -2.1128799438476564 -0.43046600341796876 10.509599609375 -9.3335 86.7891 44.721 9.39624 -12.5132 10.8553 -10.6685 25.4618 -7.82058 51.6897 41.6846 -10.6923 -42.7216 -65.4644 -65.6149 -114.5068 -3.69182 -8.36893 -28.9337 -2.73767 29.4086 0.0 30.489 0.0 6.47292 -8.00168 10.8314 0.0 0.0 0.0 0.0 0.0 0.0 109.3276 2.45205 5.46715 5.38937 30.8805 15.8607 0.0 41.2826 0.0 -2.43893 -13.2094 18.478 0.0 0.0 0.0 0.0 0.0 0.0 11.6257 -6.8044 -10.7187 0.0 23.4428 0.0 -12.4869 14.625905 -0.384165 0.0 -21.14836 0.0 8.90327 2.63828 10.3255 0.0 5.91026 0.0 17.719 10.33323 -24.0953 0.0 -12.918961 0.0 
  -2.1216900634765623 -0.3889879989624023 10.52030029296875 -8.52974 87.1675 43.9945 9.88733 -11.836 11.4297 -11.7799 24.8475 -8.03944 55.1577 42.2455 -13.184 -40.721 -65.406 -62.6798 -114.1112 -3.78854 -7.81494 -28.8983 -2.91362 28.8513 0.0 30.6657 0.0 6.69111 -8.13261 10.9744 0.0 0.0 0.0 0.0 0.0 0.0 109.3369 1.62248 5.331 3.30441 31.6702 18.5781 0.0 44.146 0.0 -2.65562 -12.3244 17.067 0.0 0.0 0.0 0.0 0.0 0.0 11.4139 -7.33842 -9.49118 0.0 23.3178 0.0 -12.7315 15.460286 -1.08171 0.0 -21.43035 0.0 8.50934 2.157 10.3496 0.0 5.93803 0.0 17.8277 10.5092 -24.1267 0.0 -12.90084 0.0 
  -2.130839996337891 -0.35103401184082034 10.528699951171875 -7.95535 87.5436 43.5937 10.099 -11.3696 11.6613 -12.3547 24.4543 -8.26305 57.9625 42.6747 -15.2733 -39.2284 -65.1018 -60.4755 -113.7545 -3.88842 -7.47132 -29.2156 -3.14771 28.0927 0.0 30.7797 0.0 6.83892 -8.15883 11.0187 0.0 0.0 0.0 0.0 0.0 0.0 109.3632 0.868676 5.35885 1.18522 32.2627 21.2331 0.0 47.7078 0.0 -0.85256 -10.2225 20.7847 0.0 0.0 0.0 0.0 0.0 0.0 11.2882 -7.94769 -8.00779 0.0 23.2828 0.0 -13.0218 16.19894 -2.07416 0.0 -21.632801 0.0 8.14174 1.73127 10.2706 0.0 5.86652 0.0 17.905 10.65556 -24.175 0.0 -12.87019 0.0 
  -2.137440032958984 -0.3163689994812012 10.5352001953125 -8.11584 87.8671 43.9833 10.1433 -11.0442 11.6798 -12.4798 24.1603 -8.46268 60.1721 43.1898 -16.8603 -38.5891 -64.7699 -59.224 -113.5485 -3.90046 -7.26954 -29.5669 -3.50913 27.5445 0.0 31.0259 0.0 7.35745 -8.48344 11.1709 0.0 0.0 0.0 0.0 0.0 0.0 109.4453 -0.0233622 5.26836 -0.973664 32.8752 23.6749 0.0 52.1187 0.0 1.06042 -9.20074 25.8304 0.0 0.0 0.0 0.0 0.0 0.0 11.2136 -8.41976 -6.71467 0.0 23.0495 0.0 -13.8587 16.64109 -2.89812 0.0 -21.28177 0.0 7.829 1.36136 10.1897 0.0 5.77119 0.0 18.009 10.75651 -24.248 0.0 -12.84849 0.0 
  -2.1410200500488283 -0.2853160095214844 10.53969970703125 -8.26865 88.0566 44.3648 10.1554 -10.7517 11.5659 -12.3518 23.9538 -8.69661 61.7108 43.815 -17.8391 -38.6643 -64.4775 -58.8289 -113.4102 -3.96137 -7.04013 -30.0152 -3.81738 26.8287 0.0 31.2938 0.0 7.47439 -8.69846 11.0273 0.0 0.0 0.0 0.0 0.0 0.0 109.5948 -0.868476 5.13177 -3.04474 33.4288 25.6862 0.0 57.0765 0.0 2.62875 -8.03621 30.312 0.0 0.0 0.0 0.0 0.0 0.0 11.239 -8.7256 -5.49428 0.0 22.8011 0.0 -15.3001 16.77322 -3.60351 0.0 -21.05366 0.0 7.59705 1.16884 10.0503 0.0 5.57163 0.0 18.088 10.88796 -24.3124 0.0 -12.8262005 0.0 
  -2.140070037841797 -0.2575079917907715 10.543299560546876 -8.10736 88.1406 44.3843 10.2736 -10.5755 11.4349 -12.3171 24.08 -8.89709 62.5161 44.1922 -18.263 -38.2361 -64.1642 -57.9504 -113.1063 -4.11341 -7.22441 -30.5496 -4.2101 26.4211 0.0 31.6872 0.0 7.52096 -8.93741 11.3218 0.0 0.0 0.0 0.0 0.0 0.0 109.793304 -1.57758 5.0466 -4.78601 33.8264 27.2824 0.0 62.4158 0.0 3.72762 -6.67924 32.5186 0.0 0.0 0.0 0.0 0.0 0.0 11.3104 -8.82578 -4.50421 0.0 22.5291 0.0 -16.8425 16.65816 -4.1584 0.0 -21.720581 0.0 7.41445 1.1036 9.87367 0.0 5.33707 0.0 18.1514 11.04374 -24.3225 0.0 -12.742229 0.0 
  -2.136629943847656 -0.231737003326416 10.546099853515624 -7.34566 88.1799 43.7322 10.4198 -10.3853 11.3796 -12.3207 24.1541 -9.04642 62.7865 44.6685 -18.1683 -38.2381 -63.9625 -57.7778 -112.8972 -4.14087 -7.10066 -30.9236 -4.48475 25.8446 0.0 32.0649 0.0 7.40413 -9.08858 11.9078 0.0 0.0 0.0 0.0 0.0 0.0 109.9281 -2.24802 5.07277 -5.98644 34.0409 27.9988 0.0 67.8506 0.0 4.3354 -5.06293 33.7003 0.0 0.0 0.0 0.0 0.0 0.0 11.3632 -8.74169 -3.90314 0.0 22.2967 0.0 -18.0909 16.22981 -4.66181 0.0 -24.31238 0.0 7.25263 1.08487 9.87686 0.0 5.14104 0.0 18.2312 11.16003 -24.4356 0.0 -12.7032 0.0 
  -2.1308900451660158 -0.20882699966430665 10.549100341796875 -5.40294 88.2305 41.8313 10.5138 -10.2813 11.3523 -12.4011 24.3171 -9.11427 62.671 44.9623 -17.868 -38.2605 -63.7894 -57.5854 -112.7349 -4.20943 -7.00279 -31.0602 -4.63859 25.8182 0.0 32.5493 0.0 7.34651 -9.25924 12.0255 0.0 0.0 0.0 0.0 0.0 0.0 110.2944 -2.48554 4.53098 -7.56365 33.5372 28.691 0.0 73.4897 0.0 4.64451 -3.69822 34.2915 0.0 0.0 0.0 0.0 0.0 0.0 11.3616 -8.52078 -3.45266 0.0 22.1643 0.0 -17.3621 15.622965 -4.58794 0.0 -24.66534 0.0 7.05969 1.08878 9.93781 0.0 4.97167 0.0 18.3292 11.22001 -24.543 0.0 -12.63503 0.0 
  -2.1246299743652344 -0.18909299850463868 10.551300048828125 -5.0384 88.2824 41.4895 10.5085 -10.2604 11.3205 -12.392 24.4324 -9.11354 62.4137 45.1162 -17.5615 -38.4837 -63.6967 -57.5279 -112.6322 -4.29135 -7.12583 -31.1768 -4.73885 25.9587 0.0 32.851 0.0 7.23968 -9.32575 12.3434 0.0 0.0 0.0 0.0 0.0 0.0 110.4742 -2.67802 4.31697 -8.25259 32.8965 28.3622 0.0 79.1019 0.0 4.82672 -2.56143 34.9408 0.0 0.0 0.0 0.0 0.0 0.0 11.384 -8.25359 -3.34717 0.0 22.2088 0.0 -16.1082 14.70705 -3.51783 0.0 -24.97034 0.0 6.9177 1.04096 9.96398 0.0 4.86564 0.0 18.3764 11.28139 -24.6145 0.0 -12.57045 0.0 
  -2.117220001220703 -0.17239299774169922 10.55219970703125 -6.18627 88.311 42.6517 10.4386 -10.3343 11.3053 -12.3006 24.5271 -9.0243 61.906 45.203 -17.1102 -38.8746 -63.6404 -57.8473 -112.5605 -4.26846 -7.34812 -31.2169 -4.83544 26.3814 0.0 33.0753 0.0 7.09123 -9.33925 12.4044 0.0 0.0 0.0 0.0 0.0 0.0 110.64 -2.72756 4.15793 -8.52439 31.8941 27.3927 0.0 84.6896 0.0 5.18587 -1.66368 35.2545 0.0 0.0 0.0 0.0 0.0 0.0 11.4622 -7.95675 -3.42489 0.0 22.4449 0.0 -15.3119 13.7119 -1.91853 0.0 -24.78888 0.0 6.8377 0.971182 10.0029 0.0 4.81107 0.0 18.4041 11.32439 -24.6979 0.0 -12.55163 0.0 
  -2.1077000427246095 -0.15807600021362306 10.551800537109376 -9.47094 88.3033 45.9753 10.2891 -10.4392 11.2813 -12.1062 24.4494 -8.92852 61.4452 45.2594 -16.7905 -39.4935 -63.5364 -58.4001 -112.6219 -4.26947 -7.35199 -31.203 -4.74212 26.4961 0.0 33.1916 0.0 6.91136 -9.31404 12.8602 0.0 0.0 0.0 0.0 0.0 0.0 110.8543 -2.75817 3.92849 -8.58571 30.6828 25.82 0.0 89.971 0.0 5.15185 -0.664826 35.0018 0.0 0.0 0.0 0.0 0.0 0.0 11.6055 -7.70879 -3.66765 0.0 22.9475 0.0 -14.4659 12.7721 -0.0425173 0.0 -24.421219 0.0 6.80919 0.883978 9.96082 0.0 4.77761 0.0 18.3571 11.42538 -24.6722 0.0 -12.52864 0.0 
  -2.096080017089844 -0.14681599617004396 10.5493994140625 -12.721 88.2145 49.3851 10.0854 -10.6378 11.179 -11.8139 24.4423 -8.83324 60.7082 45.3576 -16.2235 -40.3347 -63.4567 -59.449 -112.7553 -4.23875 -7.50467 -31.0843 -4.66116 26.7032 0.0 33.3246 0.0 6.56353 -9.27479 13.1552 0.0 0.0 0.0 0.0 0.0 0.0 110.795 -2.60359 3.74681 -8.03796 29.1274 23.6949 0.0 95.1403 0.0 5.39183 0.157428 34.3014 0.0 0.0 0.0 0.0 0.0 0.0 11.7837 -7.45676 -4.13737 0.0 23.6315 0.0 -13.464 11.99506 1.97262 0.0 -24.10696 0.0 6.85527 0.860076 10.0385 0.0 4.78637 0.0 18.5414 11.3125 -24.8208 0.0 -12.5192 0.0 
  -2.081490020751953 -0.13651100158691407 10.545899658203124 -15.2202 88.0455 52.1417 9.76093 -10.8491 11.0284 -11.3738 24.4294 -8.69137 60.0371 45.243 -15.8797 -41.1069 -63.3961 -60.5315 -112.9314 -4.09287 -7.88227 -30.9599 -4.70929 26.9915 0.0 33.4802 0.0 6.42639 -9.24822 13.6044 0.0 0.0 0.0 0.0 0.0 0.0 110.888504 -2.54169 3.63431 -7.62866 27.3928 21.2841 0.0 99.7283 0.0 6.86541 2.04849 35.521 0.0 0.0 0.0 0.0 0.0 0.0 11.9871 -7.15578 -4.69413 0.0 24.3823 0.0 -12.4701 11.37285 3.99942 0.0 -23.98394 0.0 6.93869 0.906901 10.1321 0.0 4.82152 0.0 18.818 11.10722 -25.0292 0.0 -12.49968 0.0 
  -2.06302001953125 -0.1264009952545166 10.541300048828125 -17.1136 87.8139 54.4113 9.40083 -11.1403 10.7332 -10.8179 24.4937 -8.63943 59.0083 45.3509 -15.0759 -42.1009 -63.2625 -61.8838 -113.2585 -4.03777 -7.82546 -30.7624 -4.41469 26.8614 0.0 33.6269 0.0 6.3296 -9.17303 13.6511 0.0 0.0 0.0 0.0 0.0 0.0 111.0663 -2.52081 3.51616 -7.51169 25.8255 18.7621 0.0 103.584 0.0 9.29909 3.94964 36.1391 0.0 0.0 0.0 0.0 0.0 0.0 12.2148 -6.84269 -5.27565 0.0 25.1687 0.0 -11.4618 10.926041 5.78321 0.0 -23.81585 0.0 7.04194 1.02638 10.1168 0.0 4.81935 0.0 19.1055 10.90572 -25.1855 0.0 -12.51593 0.0 
  -2.0409199523925783 -0.1172760009765625 10.53510009765625 -17.9707 87.491 55.7262 8.92637 -11.4854 10.2981 -9.9281 24.6556 -8.557 57.7465 45.4248 -14.1538 -43.432 -63.0611 -63.4621 -113.7074 -3.96018 -7.97151 -30.643 -4.07468 26.8626 0.0 33.6602 0.0 6.35825 -9.04286 13.0372 0.0 0.0 0.0 0.0 0.0 0.0 110.8002 -2.49656 3.62219 -7.00366 24.1603 15.8703 0.0 106.791 0.0 12.5935 5.73082 35.1541 0.0 0.0 0.0 0.0 0.0 0.0 12.4946 -6.45273 -5.70676 0.0 25.8954 0.0 -10.5596 10.65271 7.25898 0.0 -23.77752 0.0 7.1885 1.17554 9.73658 0.0 4.93927 0.0 19.351 10.69934 -25.063 0.0 -12.49541 0.0 
  -2.0145599365234377 -0.10560400009155274 10.528599853515624 -18.3763 87.1052 56.6149 8.52338 -11.7783 9.90289 -9.17218 24.7994 -8.51678 56.4887 45.479 -13.2116 -44.4399 -62.7925 -64.8571 -113.9726 -3.86379 -8.103 -30.6703 -3.80791 26.7624 0.0 33.763 0.0 6.5421 -8.93456 12.5605 0.0 0.0 0.0 0.0 0.0 0.0 110.7979 -2.57968 3.32488 -7.10497 22.5475 13.2884 0.0 109.121 0.0 16.1635 7.36391 33.1814 0.0 0.0 0.0 0.0 0.0 0.0 12.8266 -5.92448 -5.80186 0.0 26.3284 0.0 -9.67958 10.56245 8.40337 0.0 -23.79497 0.0 7.36212 1.43608 9.63856 0.0 4.92626 0.0 19.6527 10.466949 -25.26 0.0 -12.480289 0.0 
